<mxfile host="app.diagrams.net" agent="Mozilla/5.0 (Windows NT 10.0; Win64; x64) AppleWebKit/537.36 (KHTML, like Gecko) Chrome/127.0.0.0 Safari/537.36" version="24.7.7">
  <diagram name="Page-1" id="EmyyCAkO1zEMbGcYE98I">
    <mxGraphModel dx="1434" dy="716" grid="1" gridSize="10" guides="1" tooltips="1" connect="1" arrows="1" fold="1" page="1" pageScale="1" pageWidth="850" pageHeight="1100" math="0" shadow="0">
      <root>
        <mxCell id="0" />
        <mxCell id="1" parent="0" />
        <mxCell id="aiHo0pm3M2-PBp_HJ0Y8-1" value="" style="html=1;verticalLabelPosition=bottom;align=center;labelBackgroundColor=#ffffff;verticalAlign=top;strokeWidth=2;strokeColor=#0080F0;shadow=0;dashed=0;shape=mxgraph.ios7.icons.smartphone;" vertex="1" parent="1">
          <mxGeometry x="130" y="90" width="18" height="40" as="geometry" />
        </mxCell>
        <mxCell id="aiHo0pm3M2-PBp_HJ0Y8-2" value="" style="verticalLabelPosition=bottom;aspect=fixed;html=1;shape=mxgraph.salesforce.web;" vertex="1" parent="1">
          <mxGeometry x="109" y="190" width="60" height="47.400000000000006" as="geometry" />
        </mxCell>
      </root>
    </mxGraphModel>
  </diagram>
</mxfile>
